P3
# Created by GIMP version 2.10.20 PNM plug-in
3 3
255
255
255
238
0
0
0
255
255
238
255
255
238
0
0
0
255
255
238
255
255
238
0
0
0
255
255
238
